PathFileType	4	(X/Y/Z)	C:/Users/beibeiliu/ov580/test_trc/User3\sequence.45_training_dense_left.trc
DataRate	CameraRate	NumFrames	NumMarkers	Units	OrigDataRate	OrigDataStartFrame	OrigNumFrames
120	120	19	19	mm	120	1	107
Frame#	Time	ThumbCMC			ThumbMCP			ThumbIP			ThumbTip			IndexMCP			IndexPIP			IndexTip			MiddleMCP			MiddlePIP			MiddleTip			RingMCP			RingPIP			RingTip			PinkyMCP			PinkyPIP			PinkyTip			BackHand1			BackHand2			BackHand3	
		X0	Y0	Z0	X1	Y1	Z1	X2	Y2	Z2	X3	Y3	Z3	X4	Y4	Z4	X5	Y5	Z5	X6	Y6	Z6	X7	Y7	Z7	X8	Y8	Z8	X9	Y9	Z9	X10	Y10	Z10	X11	Y11	Z11	X12	Y12	Z12	X13	Y13	Z13	X14	Y14	Z14	X15	Y15	Z15	X16	Y16	Z16	X17	Y17	Z17	X18	Y18	Z18	
0	0	-60.6239	7.31168	42.0464	-43.2275	2.98155	19.912	-23.5137	1.58025	-3.52069	-11.6371	-2.61827	-25.568	-86.5253	24.9119	-32.3758	-79.7977	24.7156	-58.6446	-76.3725	21.3375	-89.5102	-112.11	25.5323	-36.8908	-115.561	23.6795	-65.9601	-119.08	12.9988	-96.9029	-130.891	17.5907	-29.667	-137.549	15.7469	-51.2913	-144.744	5.6917	-76.9091	-152.046	5.92519	-10.9846	-159.921	1.82494	-28.6666	-165.366	-5.56718	-52.9395	-125.032	26.4106	21.9923	-122.66	24.128	56.8589	-92.1623	28.6646	33.9216	
1	0.00833333	-62.89	7.38202	39.4287	-43.1848	4.83077	18.2612	-29.4535	1.57565	-5.30301	-13.4981	-2.41242	-26.168	-88.2952	25.9007	-34.0956	-83.0927	26.0033	-63.2377	-80.3646	20.9477	-90.7378	-113.027	26.1423	-39.5663	-115.709	24.3454	-63.7079	-120.849	13.0614	-96.8934	-136.086	17.5366	-26.9385	-137.843	15.1898	-51.6929	-146.348	4.68916	-81.6784	-149.617	5.52481	-7.54971	-162.953	0.819104	-33.0908	-169.983	-5.62139	-51.0274	-127.502	24.8157	25.8497	-122.824	25.654	54.1053	-92.3392	28.4187	31.8495	
2	0.0166667	-63.6305	7.67746	41.1791	-45.8499	5.04346	20.5616	-26.2316	3.37671	-7.93649	-16.7929	-1.5794	-22.7252	-84.4137	26.9712	-37.6331	-84.5053	26.3702	-61.0738	-77.7291	22.5061	-86.7953	-116.042	26.8364	-35.7772	-117.292	24.4545	-64.7065	-118.609	14.4678	-95.6794	-131.682	18.1643	-25.7559	-139.961	13.9351	-55.7034	-147.906	4.2329	-80.113	-152.422	6.5484	-8.15894	-163.634	0.481555	-30.4945	-168.743	-8.12599	-50.6353	-129.221	25.8917	25.575	-123.048	24.4662	53.6876	-94.48	28.5314	34.8938	
3	0.025	-61.3414	8.98628	36.5308	-46.8304	4.70048	17.4139	-28.5684	2.18168	-6.09783	-16.2196	-2.64	-21.0208	-87.8205	26.3051	-36.9866	-80.919	26.4225	-64.514	-83.7207	21.4018	-85.8233	-114.133	26.3369	-34.7825	-118.529	23.6165	-66.8073	-121.944	12.6986	-95.9164	-132.593	18.0292	-28.4295	-141.403	13.5842	-54.2517	-145.845	5.56107	-76.0507	-148.219	5.92937	-8.03614	-160.361	2.62077	-31.3683	-170.396	-6.56735	-51.1756	-128.425	24.9665	22.2941	-127.62	24.2932	53.1339	-94.0886	29.1773	31.7532	
4	0.0333333	-65.4341	7.39341	40.1261	-45.3828	5.00179	15.639	-26.0431	1.99883	-4.59951	-13.663	-2.68537	-22.8583	-85.4096	26.5902	-33.6442	-82.9572	26.7445	-59.7805	-79.4646	21.6257	-85.9869	-113.269	27.6908	-40.5272	-116.471	22.0212	-69.4386	-119.587	11.9763	-95.051	-137.236	15.7696	-26.6725	-140.949	13.0187	-55.9548	-148.457	1.16021	-79.4894	-154.172	4.34351	-8.95829	-158.979	1.70483	-30.1089	-170.573	-7.68736	-51.2592	-129.486	25.899	23.2567	-122.521	25.287	51.0331	-95.0606	28.018	31.6833	
5	0.0416667	-65.1665	7.52727	36.2218	-46.8373	3.99155	16.3827	-29.0972	0.947233	-8.83955	-14.8777	-4.82253	-25.2115	-85.1769	25.3252	-32.3661	-86.7507	24.1164	-63.6974	-81.2949	18.8173	-85.8743	-117.487	24.4665	-38.8039	-117.494	20.7572	-66.5621	-123.074	6.69149	-94.647	-138.135	14.6045	-26.1706	-144.253	10.3601	-54.4082	-149.94	-0.070691	-75.6756	-151.86	4.85151	-8.64258	-158.576	1.2116	-27.7978	-169.506	-9.6086	-49.592	-125.817	24.8895	26.6059	-124.6	23.2948	53.7615	-91.8237	27.7431	32.9244	
6	0.05	-63.4821	2.60681	36.9403	-45.7823	-2.61354	15.4947	-33.2534	-9.22066	-5.69859	-21.9911	-14.0508	-25.9557	-89.8226	21.3291	-36.8025	-83.9454	19.2713	-59.2816	-85.2236	13.1211	-85.3738	-118.632	21.8096	-38.3665	-117.484	18.3319	-63.4012	-122.911	4.90572	-96.018	-133.724	14.0534	-23.8819	-143.515	10.3564	-50.6355	-149.091	0.148238	-79.0666	-154.429	4.23504	-7.46622	-162.15	0.72719	-31.7706	-170.076	-6.41915	-51.0022	-124.315	20.8991	27.6359	-125.321	20.9995	56.7403	-94.4246	25.2193	35.7507	
7	0.0583333	-63.5441	-0.897248	41.3107	-47.7413	-7.13457	17.0935	-32.3706	-11.1266	-11.5465	-23.1407	-18.0668	-29.1192	-89.2179	23.2721	-34.3043	-84.9718	20.9731	-62.9544	-88.1221	17.1396	-84.6447	-117.157	25.3803	-36.1762	-119.647	23.3989	-61.9366	-122.04	12.1996	-97.6122	-134.212	17.0594	-23.5658	-146.597	13.8374	-48.8279	-152.174	5.91039	-73.4594	-154.977	7.98856	-8.53036	-160.755	4.87978	-27.2501	-170.393	-2.60537	-52.6801	-129.168	21.2222	30.426	-124.57	19.9799	56.6179	-90.8975	24.898	35.9226	
8	0.0666667	-64.6181	-0.937661	37.8152	-50.0111	-6.11418	12.7651	-39.0756	-10.4016	-12.2152	-29.5103	-15.3757	-35.9528	-90.3006	29.6003	-29.0975	-87.9402	31.8754	-60.883	-85.0692	27.4985	-87.2868	-117.204	32.7806	-29.0493	-124.467	35.0251	-61.0502	-126.081	29.1815	-91.8677	-137.585	22.087	-22.4881	-147.023	20.7831	-46.6999	-150.444	13.1444	-75.3976	-155.292	8.43814	-3.26429	-161.808	6.94886	-25.2505	-172.195	0.042456	-49.553	-127.612	21.9763	30.3351	-125.099	17.3672	61.3969	-93.31	23.0863	38.756	
9	0.075	-68.2857	-0.972753	39.5742	-47.7677	-4.54443	12.971	-36.024	-7.59658	-11.1929	-33.8117	-13.2655	-33.4043	-92.0837	34.6165	-27.2643	-92.6438	40.0134	-52.3651	-90.971	40.0001	-80.8531	-119.093	38.7958	-27.4301	-122.941	44.5657	-54.9673	-128.145	42.392	-86.3318	-137.6	25.7742	-21.811	-150.657	24.8993	-42.9907	-154.475	16.7193	-71.6572	-153.588	8.79154	-2.68454	-166.641	5.27141	-26.8665	-172.28	-2.82241	-48.249	-132.686	21.5072	33.5788	-127.68	16.913	59.394	-94.6531	23.2285	41.22	
10	0.0833333	-69.2318	0.841935	35.8816	-52.8108	-3.75301	12.0809	-40.7398	-7.15398	-14.8025	-32.9493	-11.5138	-37.1013	-98.9666	35.1107	-28.7652	-94.0531	41.2705	-53.7587	-95.5302	42.2335	-83.1481	-125.664	40.0404	-28.0043	-128.964	45.8771	-52.7785	-137.794	45.9866	-84.3773	-148.524	22.0993	-18.6201	-156.44	22.5515	-43.7001	-160.536	11.5197	-73.3303	-158.826	6.53078	-3.15633	-171.672	0.982209	-26.989	-174.662	-13.7609	-47.029	-136.093	20.4371	33.6234	-130.157	15.0193	57.6883	-100.544	23.8093	39.6793	
11	0.0916667	-75.314	-6.65038	35.6977	-53.3796	-12.6667	11.5906	-41.3407	-18.402	-14.3935	-38.495	-25.7756	-35.5763	-99.9228	23.575	-35.0899	-96.2653	26.6906	-62.4441	-97.102	25.3089	-85.6156	-128.157	28.011	-31.26	-135.096	33.1837	-60.7106	-140.99	28.7025	-94.8548	-150.167	12.5951	-21.1033	-157.474	8.38783	-48.8904	-164.561	-12.269	-70.4185	-163.734	-0.801468	-10.9485	-172.756	-12.39	-27.9041	-172.237	-39.7846	-42.6488	-139.019	18.4568	27.781	-134.303	14.0542	56.5612	-100.417	17.8545	31.965	
12	0.1	-74.3144	-14.1042	31.5767	-57.8095	-28.4604	12.7193	-40.0207	-40.8497	-9.69357	-35.1916	-52.4313	-29.8538	-92.5424	1.20053	-41.6769	-86.314	-2.74805	-67.1862	-86.7421	-11.2651	-89.4122	-119.998	7.21369	-41.7522	-126.547	2.9816	-71.9792	-131.602	-12.3408	-98.218	-146.667	-5.52199	-29.0262	-149.762	-23.3222	-56.0011	-150.874	-54.0348	-59.807	-161.182	-17.9486	-10.8958	-165.764	-38.0068	-27.7964	-151.731	-67.7411	-25.0197	-131.833	8.70228	17.6801	-129.36	11.2405	50.9593	-99.0953	9.33288	29.0003	
13	0.108333	-68.1465	-23.2998	42.1438	-47.7417	-42.0943	22.7806	-35.619	-59.8607	2.00211	-36.0314	-78.1469	-15.6826	-81.4377	-20.8341	-36.0862	-70.7458	-31.2417	-61.239	-67.0568	-55.9126	-81.3839	-105.049	-16.8663	-45.7834	-103.737	-33.4965	-72.2266	-104.811	-63.3564	-85.619	-127.941	-31.3421	-34.6891	-130.227	-56.1828	-47.8031	-125.087	-84.7159	-31.8229	-143.607	-41.1036	-18.7917	-141.704	-69.789	-17.8964	-126.798	-80.7876	3.15074	-124.962	-2.90405	12.0697	-125.986	7.13044	41.6013	-92.737	3.34783	29.1102	
14	0.116667	-65.0594	-19.1427	46.76	-44.138	-39.0071	35.891	-29.0355	-60.7313	18.5976	-33.1026	-81.3182	1.63253	-68.2119	-30.4023	-34.0029	-55.0147	-47.7387	-53.4702	-47.7922	-77.7261	-57.3587	-90.0593	-32.3779	-40.4528	-82.5262	-56.7377	-62.2518	-81.3001	-96.6257	-55.0403	-111.319	-51.0251	-30.1168	-107.253	-81.8647	-30.7583	-101.151	-93.578	-2.99219	-130.266	-61.8834	-14.6245	-121.741	-83.8196	-4.33773	-110.618	-78.6848	28.2098	-125.557	-9.98694	9.74179	-126.682	-0.941616	36.3838	-93.6313	0.0200361	25.7387	
15	0.125	-67.4502	-10.8361	50.224	-42.3644	-29.8675	41.1091	-22.5234	-51.6089	26.1983	-24.6805	-74.0576	17.3793	-58.4322	-29.952	-26.1195	-37.9112	-50.6562	-39.7445	-32.2579	-83.4566	-31.0186	-82.3282	-40.7893	-35.2625	-62.4127	-70.5572	-46.8639	-57.3134	-98.3116	-24.9732	-98.5571	-61.0026	-20.8558	-85.4288	-87.6787	-11.9476	-84.7497	-88.4956	21.3271	-114.712	-72.3154	-5.76309	-99.7663	-86.1085	11.8138	-96.5707	-70.488	39.0064	-120.98	-18.9254	6.39371	-131.122	-5.62931	33.7454	-95.032	2.34946	22.4705	
16	0.133333	-71.3195	0.454379	53.4226	-39.3716	-17.1489	45.5777	-20.5171	-35.5301	37.5656	-19.556	-62.8281	25.3844	-55.0866	-26.7882	-19.0873	-30.1998	-50.8855	-26.7217	-19.6473	-71.728	-8.2563	-73.5525	-45.3343	-26.0687	-49.9076	-72.1692	-30.1554	-41.444	-89.6829	1.49361	-81.2381	-63.8624	-9.37299	-68.1482	-86.9886	8.17611	-70.8264	-75.8936	41.771	-97.0534	-75.7068	5.51273	-83.4289	-83.2407	25.3421	-86.614	-64.4769	47.9992	-121.413	-23.5342	11.0199	-132.554	-10.7635	31.3098	-100.712	1.82374	21.9479	
17	0.141667	-75.4392	11.1088	52.2289	-45.83	0.109889	51.8448	-20.1351	-15.8188	45.2368	-12.393	-43.7657	37.4544	-50.5851	-19.7313	-13.1523	-22.3146	-41.5235	-14.5245	-10.7343	-53.0009	10.2154	-59.5884	-45.9684	-19.1898	-33.3471	-62.4749	-13.0171	-28.8415	-71.9044	27.3225	-69.7272	-64.1832	1.37266	-51.5348	-77.1815	21.211	-55.2956	-59.1719	51.5105	-83.1468	-71.775	15.7076	-67.1816	-74.4888	40.9874	-75.0644	-56.7063	58.3142	-116.027	-29.2278	12.0809	-134.275	-19.9889	33.0114	-107.004	0.496408	23.514	
18	0.15	-83.7725	23.9213	49.9378	-53.8866	21.4536	52.5019	-20.1342	10.1176	48.2801	-14.4457	-15.4775	47.2655	-47.3071	-10.3205	-5.85796	-13.6744	-18.9944	-3.50727	-3.69234	-24.9227	26.8268	-49.0847	-34.4349	-7.27799	-16.7268	-45.9495	7.37005	-15.3901	-42.713	41.2482	-54.9358	-51.5815	13.3346	-33.6908	-56.4439	38.7086	-47.4685	-36.9207	65.4548	-64.8045	-62.5424	29.5634	-49.2646	-54.0999	53.0826	-62.8665	-37.9835	68.7179	-108.926	-31.3074	19.1144	-132.921	-25.1108	37.1612	-109.085	-0.722029	26.2135	
